HIERARCHY
ROOT Hips
{
    OFFSET   0.000000   0.000000   0.000000
    CHANNELS 6 Xposition Yposition Zposition Zrotation Xrotation Yrotation
    JOINT Chest
    {
        OFFSET   0.000000   8.007230   0.000000
        CHANNELS 3 Zrotation Xrotation Yrotation
        JOINT Chest2
        {
            OFFSET   0.000000  22.077100   0.000000
            CHANNELS 3 Zrotation Xrotation Yrotation
            JOINT Neck
            {
                OFFSET   0.000000  23.255100   0.000000
                CHANNELS 3 Zrotation Xrotation Yrotation
                JOINT Head
                {
                    OFFSET   0.000000  14.370100   1.956600
                    CHANNELS 3 Zrotation Xrotation Yrotation
                    End Site
                    {
                        OFFSET   0.000000  19.566000   0.000000
                    }
                }
            }
            JOINT LeftCollar
            {
                OFFSET   3.911900  19.017000  -0.467063
                CHANNELS 3 Zrotation Xrotation Yrotation
                JOINT LeftShoulder
                {
                    OFFSET  10.383700   0.000000   0.000000
                    CHANNELS 3 Zrotation Xrotation Yrotation
                    JOINT LeftElbow
                    {
                        OFFSET  26.662100   0.001193   0.000980
                        CHANNELS 3 Zrotation Xrotation Yrotation
                        JOINT LeftWrist
                        {
                            OFFSET  28.869000  -0.000059  -0.000082
                            CHANNELS 3 Zrotation Xrotation Yrotation
                            JOINT LeftFinger0
                            {
                                OFFSET   2.044650  -2.323450   3.252850
                                CHANNELS 3 Zrotation Xrotation Yrotation
                                JOINT LeftFinger01
                                {
                                    OFFSET   3.088130   0.000000   0.000000
                                    CHANNELS 3 Zrotation Xrotation Yrotation
                                    JOINT LeftFinger02
                                    {
                                        OFFSET   2.639460   0.000000   0.000000
                                        CHANNELS 3 Zrotation Xrotation Yrotation
                                        End Site
                                        {
                                            OFFSET   2.582190   0.000000   0.000000
                                        }
                                    }
                                }
                            }
                            JOINT LeftFinger1
                            {
                                OFFSET   8.364480   0.000000   3.252850
                                CHANNELS 3 Zrotation Xrotation Yrotation
                                JOINT LeftFinger11
                                {
                                    OFFSET   4.646930   0.000000   0.000000
                                    CHANNELS 3 Zrotation Xrotation Yrotation
                                    JOINT LeftFinger12
                                    {
                                        OFFSET   2.323470   0.000000   0.000000
                                        CHANNELS 3 Zrotation Xrotation Yrotation
                                        End Site
                                        {
                                            OFFSET   2.273050   0.000000   0.000000
                                        }
                                    }
                                }
                            }
                            JOINT LeftFinger2
                            {
                                OFFSET   8.364490   0.000016   1.078090
                                CHANNELS 3 Zrotation Xrotation Yrotation
                                JOINT LeftFinger21
                                {
                                    OFFSET   5.111610   0.000000   0.000000
                                    CHANNELS 3 Zrotation Xrotation Yrotation
                                    JOINT LeftFinger22
                                    {
                                        OFFSET   2.788150   0.000016   0.000000
                                        CHANNELS 3 Zrotation Xrotation Yrotation
                                        End Site
                                        {
                                            OFFSET   2.727660   0.000000   0.000000
                                        }
                                    }
                                }
                            }
                            JOINT LeftFinger3
                            {
                                OFFSET   7.899780   0.000015  -1.078090
                                CHANNELS 3 Zrotation Xrotation Yrotation
                                JOINT LeftFinger31
                                {
                                    OFFSET   4.646930   0.000000   0.000000
                                    CHANNELS 3 Zrotation Xrotation Yrotation
                                    JOINT LeftFinger32
                                    {
                                        OFFSET   2.323470   0.000000   0.000000
                                        CHANNELS 3 Zrotation Xrotation Yrotation
                                        End Site
                                        {
                                            OFFSET   2.273050   0.000000   0.000000
                                        }
                                    }
                                }
                            }
                            JOINT LeftFinger4
                            {
                                OFFSET   7.435090   0.000000  -3.252850
                                CHANNELS 3 Zrotation Xrotation Yrotation
                                JOINT LeftFinger41
                                {
                                    OFFSET   3.717550   0.000000   0.000000
                                    CHANNELS 3 Zrotation Xrotation Yrotation
                                    JOINT LeftFinger42
                                    {
                                        OFFSET   1.858770   0.000000   0.000000
                                        CHANNELS 3 Zrotation Xrotation Yrotation
                                        End Site
                                        {
                                            OFFSET   1.818440   0.000000   0.000000
                                        }
                                    }
                                }
                            }
                        }
                    }
                }
            }
            JOINT RightCollar
            {
                OFFSET  -3.911910  19.017000  -0.467062
                CHANNELS 3 Zrotation Xrotation Yrotation
                JOINT RightShoulder
                {
                    OFFSET -10.383700   0.000014   0.000000
                    CHANNELS 3 Zrotation Xrotation Yrotation
                    JOINT RightElbow
                    {
                        OFFSET -26.662100   0.001225   0.001091
                        CHANNELS 3 Zrotation Xrotation Yrotation
                        JOINT RightWrist
                        {
                            OFFSET -28.869000  -0.000020  -0.000085
                            CHANNELS 3 Zrotation Xrotation Yrotation
                            JOINT RightFinger0
                            {
                                OFFSET  -2.044650  -2.323490   3.252850
                                CHANNELS 3 Zrotation Xrotation Yrotation
                                JOINT RightFinger01
                                {
                                    OFFSET  -3.088130   0.000000   0.000000
                                    CHANNELS 3 Zrotation Xrotation Yrotation
                                    JOINT RightFinger02
                                    {
                                        OFFSET  -2.639460   0.000000   0.000000
                                        CHANNELS 3 Zrotation Xrotation Yrotation
                                        End Site
                                        {
                                            OFFSET  -2.582190   0.000000   0.000000
                                        }
                                    }
                                }
                            }
                            JOINT RightFinger1
                            {
                                OFFSET  -8.364480   0.000000   3.252850
                                CHANNELS 3 Zrotation Xrotation Yrotation
                                JOINT RightFinger11
                                {
                                    OFFSET  -4.646930   0.000000   0.000000
                                    CHANNELS 3 Zrotation Xrotation Yrotation
                                    JOINT RightFinger12
                                    {
                                        OFFSET  -2.323470   0.000000   0.000000
                                        CHANNELS 3 Zrotation Xrotation Yrotation
                                        End Site
                                        {
                                            OFFSET  -2.273050   0.000000   0.000000
                                        }
                                    }
                                }
                            }
                            JOINT RightFinger2
                            {
                                OFFSET  -8.364480   0.000000   1.078090
                                CHANNELS 3 Zrotation Xrotation Yrotation
                                JOINT RightFinger21
                                {
                                    OFFSET  -5.111620   0.000000   0.000000
                                    CHANNELS 3 Zrotation Xrotation Yrotation
                                    JOINT RightFinger22
                                    {
                                        OFFSET  -2.788160   0.000000   0.000000
                                        CHANNELS 3 Zrotation Xrotation Yrotation
                                        End Site
                                        {
                                            OFFSET  -2.727660   0.000000   0.000000
                                        }
                                    }
                                }
                            }
                            JOINT RightFinger3
                            {
                                OFFSET  -7.899780   0.000000  -1.078090
                                CHANNELS 3 Zrotation Xrotation Yrotation
                                JOINT RightFinger31
                                {
                                    OFFSET  -4.646930   0.000000   0.000000
                                    CHANNELS 3 Zrotation Xrotation Yrotation
                                    JOINT RightFinger32
                                    {
                                        OFFSET  -2.323470   0.000000   0.000000
                                        CHANNELS 3 Zrotation Xrotation Yrotation
                                        End Site
                                        {
                                            OFFSET  -2.273050   0.000000   0.000000
                                        }
                                    }
                                }
                            }
                            JOINT RightFinger4
                            {
                                OFFSET  -7.435090   0.000000  -3.252850
                                CHANNELS 3 Zrotation Xrotation Yrotation
                                JOINT RightFinger41
                                {
                                    OFFSET  -3.717550   0.000000   0.000000
                                    CHANNELS 3 Zrotation Xrotation Yrotation
                                    JOINT RightFinger42
                                    {
                                        OFFSET  -1.858760   0.000000   0.000000
                                        CHANNELS 3 Zrotation Xrotation Yrotation
                                        End Site
                                        {
                                            OFFSET  -1.818440   0.000000   0.000000
                                        }
                                    }
                                }
                            }
                        }
                    }
                }
            }
        }
    }
    JOINT LeftHip
    {
        OFFSET   9.783030   0.000000   0.000000
        CHANNELS 3 Zrotation Xrotation Yrotation
        JOINT LeftKnee
        {
            OFFSET   0.000063 -41.789100   0.000608
            CHANNELS 3 Zrotation Xrotation Yrotation
            JOINT LeftAnkle
            {
                OFFSET   0.000048 -41.133200  -0.000184
                CHANNELS 3 Zrotation Xrotation Yrotation
                JOINT LeftToe
                {
                    OFFSET   0.000000  -6.358960  14.674500
                    CHANNELS 3 Zrotation Xrotation Yrotation
                    End Site
                    {
                        OFFSET   0.000000   0.000000   3.913200
                    }
                }
            }
        }
    }
    JOINT RightHip
    {
        OFFSET  -9.783030   0.000000   0.000000
        CHANNELS 3 Zrotation Xrotation Yrotation
        JOINT RightKnee
        {
            OFFSET   0.000071 -41.789100   0.001239
            CHANNELS 3 Zrotation Xrotation Yrotation
            JOINT RightAnkle
            {
                OFFSET   0.000037 -41.133200  -0.000166
                CHANNELS 3 Zrotation Xrotation Yrotation
                JOINT RightToe
                {
                    OFFSET   0.000000  -6.358960  14.674500
                    CHANNELS 3 Zrotation Xrotation Yrotation
                    End Site
                    {
                        OFFSET   0.000000   0.000000   3.913200
                    }
                }
            }
        }
    }
}
MOTION
Frames: 6
Frame Time:   0.016667
 -0.447123  89.500400   2.744790  -2.402230  -6.848350  -1.972830   1.048670   3.920090   0.298043   2.084190   7.844930   0.525771   1.945140  -0.196879   0.001249   3.195630  -0.398408   1.025130  -5.898450   0.206167   1.602350 -73.917300  17.467600  -1.042360  -1.822740  -4.382590 -16.368400  16.935200 -12.979400   8.107450  40.010900  35.873000 -63.605300 -33.658400   0.005585   0.003783 -11.829200   0.006322   0.005709 -31.945800   5.991810  -9.502700 -26.550500  -0.000239  -0.001476 -18.578200   0.001205   0.012599 -28.563800  -1.717610   3.151800 -37.513300   0.000731   0.000238 -24.983800   0.000380   0.000716 -28.660200  -1.723070   3.148810 -39.211600  -0.007727  -0.003603 -26.110800   0.003039  -0.006556 -32.903600  -1.951050   3.012970 -49.429800  -0.006488  -0.003503 -32.920300   0.003440  -0.002554  11.270600   1.936920   6.174770  67.132700   5.365380  -3.183220  -3.113680  -9.642050  13.006700  -9.190720  -4.416170   4.687490 -40.382000  30.796900  71.477000  21.902400  -0.002016  -0.000916   5.951220  -0.006937   0.000000  27.189900   5.782940  11.097700  22.706300   0.004464   0.010887  15.902300   0.003153   0.006408  27.144100   2.916240   5.659550  28.216900   0.009619   0.012810  18.792400   0.008196   0.004304  22.977900   0.971016   2.288190  22.997200   0.003586   0.002373  15.316100   0.001068   0.000908  29.546800   1.225730   2.161170  44.354800   0.008977  -0.002318  29.540300   0.004707  -0.003211   2.721960   9.880580   2.354540   1.101920   0.068289   4.883440  -2.658530  -3.979300   1.088510   0.000000   0.000000  -0.000000   2.301930   9.601810  -1.880850  -0.092471   1.533090  -7.769260  -0.014505  -4.971600   0.005600   0.000000   0.000000   0.000000
 -0.439834  89.500400   2.758810  -2.404650  -6.856120  -1.973230   1.056810   3.912630   0.291559   2.100980   7.829940   0.512332   1.945720  -0.190629   0.001258   3.196450  -0.385674   1.024610  -5.914340   0.214181   1.615710 -73.933500  17.474000  -1.049950  -1.815340  -4.358270 -16.366300  16.933600 -12.964300   8.109640  40.002500  35.863200 -63.581200 -33.666600   0.005585   0.003791 -11.833300   0.006322   0.005850 -31.948400   5.983650  -9.489630 -26.550300  -0.000239  -0.001475 -18.578200   0.001204   0.012600 -28.562900  -1.725240   3.165910 -37.505200   0.000732   0.000238 -24.978600   0.000380   0.000713 -28.659400  -1.730770   3.162880 -39.216100  -0.007728  -0.003602 -26.115900   0.003040  -0.006555 -32.903000  -1.959890   3.026350 -49.430300  -0.006488  -0.003503 -32.920600   0.003440  -0.002555  11.281500   1.923160   6.203220  67.100400   5.363820  -3.193650  -3.147460  -9.636180  13.028000  -9.187030  -4.429200   4.700400 -40.385400  30.801200  71.480400  21.877800  -0.002015  -0.000916   5.938940  -0.006934   0.000000  27.195100   5.785190  11.099300  22.710700   0.004462   0.010884  15.902300   0.003152   0.006403  27.151000   2.916890   5.662430  28.247700   0.009618   0.012812  18.812900   0.008194   0.004302  23.030500   1.005520   2.364750  23.051400   0.003586   0.002370  15.352200   0.001066   0.000906  29.555000   1.272180   2.241860  44.370100   0.008977  -0.002322  29.550500   0.004706  -0.003210   2.727530   9.875530   2.358320   1.096080   0.138695   4.885600  -2.661910  -4.030040   1.079410  -0.000000   0.000000   0.000000   2.284520   9.600090  -1.879460  -0.063434   1.562550  -7.765350  -0.027186  -4.986290  -0.001673   0.000000   0.000000   0.000000
 -0.428307  89.500400   2.782030  -2.409820  -6.868260  -1.975870   1.070840   3.899840   0.279646   2.129990   7.804210   0.487689   1.949800  -0.177253   0.001275   3.203290  -0.358477   1.020970  -5.938540   0.226677   1.639680 -73.966200  17.484200  -1.060350  -1.804270  -4.323170 -16.358700  16.933100 -12.949100   8.116660  39.991900  35.857100 -63.553100 -33.682100   0.005585   0.003800 -11.841100   0.006323   0.006046 -31.952500   5.970870  -9.468920 -26.550000  -0.000240  -0.001474 -18.578200   0.001200   0.012604 -28.561600  -1.736850   3.187350 -37.493700   0.000733   0.000238 -24.970800   0.000380   0.000705 -28.658100  -1.742480   3.184280 -39.220700  -0.007729  -0.003602 -26.121000   0.003041  -0.006553 -32.901800  -1.973260   3.046740 -49.430800  -0.006489  -0.003503 -32.920900   0.003440  -0.002557  11.300100   1.902530   6.253020  67.041800   5.353280  -3.204040  -3.208840  -9.619650  13.066700  -9.172040  -4.449530   4.725250 -40.398700  30.814200  71.488000  21.839600  -0.002012  -0.000914   5.919810  -0.006925  -0.000000  27.202300   5.791260  11.107000  22.717500   0.004457   0.010875  15.902300   0.003148   0.006395  27.163300   2.920250   5.670160  28.303600   0.009613   0.012821  18.850200   0.008189   0.004296  23.106600   1.043510   2.444440  23.128900   0.003587   0.002360  15.403900   0.001060   0.000901  29.570600   1.318620   2.322560  44.396000   0.008979  -0.002332  29.567700   0.004700  -0.003206   2.737270   9.870460   2.364090   1.090220   0.209099   4.891440  -2.665480  -4.086270   1.066340   0.000000   0.000000   0.000000   2.257990   9.598370  -1.878080  -0.019962   1.607180  -7.746280  -0.047122  -5.010310  -0.014495  -0.000000   0.000000   0.000000
 -0.419997  89.499600   2.800260  -2.416720  -6.875660  -1.982640   1.083290   3.888120   0.267866   2.155780   7.780590   0.463414   1.962400  -0.159272   0.001293   3.224100  -0.322024   1.006430  -5.952840   0.234797   1.661990 -74.006600  17.488000  -1.062290  -1.797460  -4.304280 -16.343900  16.935000 -12.950900   8.130530  39.988000  35.866100 -63.545700 -33.699000   0.005566   0.003799 -11.849600   0.006326   0.006129 -31.955700   5.961640  -9.453480 -26.550100  -0.000241  -0.001478 -18.578300   0.001195   0.012611 -28.560700  -1.744050   3.201000 -37.488100   0.000732   0.000238 -24.966100   0.000382   0.000693 -28.657300  -1.749730   3.197880 -39.220300  -0.007730  -0.003602 -26.120800   0.003042  -0.006550 -32.900100  -1.981450   3.059690 -49.429300  -0.006490  -0.003503 -32.920000   0.003440  -0.002559  11.316000   1.888840   6.297810  66.985900   5.322310  -3.202960  -3.268880  -9.592030  13.103100  -9.138300  -4.465070   4.752440 -40.424400  30.835300  71.497100  21.811100  -0.002009  -0.000905   5.905560  -0.006908   0.000000  27.206200   5.802130  11.125700  22.722500   0.004450   0.010863  15.902500   0.003136   0.006386  27.174800   2.928420   5.683570  28.358600   0.009603   0.012842  18.886900   0.008177   0.004285  23.137600   1.046350   2.446530  23.159900   0.003592   0.002342  15.424500   0.001053   0.000893  29.585200   1.316120   2.318280  44.417400   0.008980  -0.002347  29.582000   0.004688  -0.003199   2.745180   9.898840   2.368390   1.086150   0.191143   4.900430  -2.664740  -4.092680   1.059560  -0.000000   0.000000   0.000000   2.245040   9.602710  -1.900160   0.004870   1.634620  -7.700620  -0.060921  -5.029680  -0.027170   0.000000   0.000000   0.000000
 -0.413223  89.498400   2.818440  -2.424700  -6.883290  -1.994280   1.095890   3.877480   0.254603   2.181970   7.759080   0.436135   1.983400  -0.139865   0.001312   3.258450  -0.282706   0.982171  -5.964950   0.242017   1.687230 -74.049300  17.498100  -1.064700  -1.793510  -4.296390 -16.323900  16.936400 -12.952800   8.145250  39.990000  35.881600 -63.543300 -33.717100   0.005531   0.003797 -11.858600   0.006335   0.006156 -31.958500   5.954810  -9.441510 -26.550500  -0.000243  -0.001483 -18.578300   0.001188   0.012620 -28.560100  -1.749410   3.210520 -37.485900   0.000732   0.000238 -24.963900   0.000384   0.000678 -28.656700  -1.755110   3.207410 -39.217800  -0.007732  -0.003604 -26.119100   0.003043  -0.006545 -32.894400  -1.987330   3.069050 -49.421400  -0.006493  -0.003503 -32.914700   0.003441  -0.002563  11.332300   1.881930   6.345570  66.922100   5.285310  -3.196380  -3.334520  -9.556670  13.146900  -9.095650  -4.474560   4.782920 -40.461600  30.866900  71.511600  21.792900  -0.002004  -0.000885   5.896430  -0.006886  -0.000000  27.206300   5.813540  11.146700  22.725100   0.004437   0.010846  15.903000   0.003121   0.006375  27.186900   2.937930   5.698450  28.417600   0.009590   0.012869  18.926100   0.008161   0.004270  23.161300   1.048170   2.448610  23.183700   0.003595   0.002316  15.440400   0.001044   0.000882  29.600200   1.312130   2.310640  44.440100   0.008982  -0.002366  29.597100   0.004671  -0.003189   2.752310   9.951920   2.370890   1.079600   0.151999   4.912810  -2.662610  -4.093590   1.056770  -0.000000   0.000000   0.000000   2.238090   9.613350  -1.932820   0.022965   1.654490  -7.648010  -0.072527  -5.046240  -0.038794  -0.000000   0.000000   0.000000
 -0.409332  89.497900   2.837170  -2.432060  -6.893630  -2.010360   1.107510   3.870640   0.239606   2.206320   7.745170   0.405375   2.011390  -0.123439   0.001333   3.304470  -0.249424   0.953276  -5.976660   0.247266   1.717020 -74.084200  17.523500  -1.073460  -1.794790  -4.302560 -16.302900  16.936000 -12.942600   8.154440  40.011500  35.929800 -63.580300 -33.733300   0.005489   0.003769 -11.866600   0.006356   0.004815 -31.960400   5.952980  -9.437840 -26.551900  -0.000249  -0.001486 -18.578400   0.001180   0.012631 -28.559700  -1.752110   3.213290 -37.489600   0.000734   0.000237 -24.965800   0.000384   0.000661 -28.656500  -1.757750   3.210220 -39.203800  -0.007734  -0.003605 -26.109800   0.003044  -0.006540 -32.881600  -1.989790   3.072230 -49.402500  -0.006495  -0.003504 -32.902100   0.003442  -0.002566  11.349200   1.881750   6.395660  66.849300   5.251660  -3.178040  -3.403260  -9.517400  13.201700  -9.053800  -4.475930   4.814260 -40.514600  30.912600  71.533600  21.790600  -0.001993  -0.000851   5.895280  -0.006865   0.000000  27.202900   5.819500  11.159900  22.722900   0.004409   0.010825  15.903300   0.003115   0.006359  27.198400   2.945070   5.709420  28.472700   0.009574   0.012897  18.962700   0.008141   0.004251  23.194800   1.054880   2.459940  23.217500   0.003592   0.002283  15.462900   0.001034   0.000867  29.613600   1.309980   2.304570  44.459900   0.008987  -0.002388  29.610300   0.004652  -0.003178   2.757880  10.011600   2.367330   1.075770   0.085199   4.929670  -2.658700  -4.085600   1.060660  -0.000000   0.000000  -0.000000   2.235610   9.630800  -1.952970   0.033115   1.662140  -7.604390  -0.081116  -5.055490  -0.046886  -0.000000   0.000000   0.000000
